<svg width="25" height="24" viewBox="0 0 25 24" fill="none" xmlns="http://www.w3.org/2000/svg">
<path fill-rule="evenodd" clip-rule="evenodd" d="M12.5 5.09C13.59 3.81 15.26 3 17 3C20.08 3 22.5 5.42 22.5 8.5C22.5 12.2769 19.1056 15.3549 13.9627 20.0185L13.95 20.03L12.5 21.35L11.05 20.04L11.0105 20.0041C5.88263 15.3442 2.5 12.2703 2.5 8.5C2.5 5.42 4.92 3 8 3C9.74 3 11.41 3.81 12.5 5.09ZM12.5 18.65L12.6 18.55C17.36 14.24 20.5 11.39 20.5 8.5C20.5 6.5 19 5 17 5C15.46 5 13.96 5.99 13.44 7.36H11.57C11.04 5.99 9.54 5 8 5C6 5 4.5 6.5 4.5 8.5C4.5 11.39 7.64 14.24 12.4 18.55L12.5 18.65Z" fill="#0078EF"/>
</svg>
