<svg width="40" height="40" viewBox="0 0 40 40" fill="none" xmlns="http://www.w3.org/2000/svg">
<mask id="path-1-outside-1_64_552" maskUnits="userSpaceOnUse" x="6.33325" y="1.33337" width="28" height="39" fill="black">
<rect fill="white" x="6.33325" y="1.33337" width="28" height="39"/>
<path fill-rule="evenodd" clip-rule="evenodd" d="M8.33325 15C8.33325 8.55004 13.5499 3.33337 19.9999 3.33337C26.4499 3.33337 31.6666 8.55004 31.6666 15C31.6666 23.75 19.9999 36.6667 19.9999 36.6667C19.9999 36.6667 8.33325 23.75 8.33325 15ZM15.8333 15C15.8333 17.3 17.6999 19.1667 19.9999 19.1667C22.2999 19.1667 24.1666 17.3 24.1666 15C24.1666 12.7 22.2999 10.8334 19.9999 10.8334C17.6999 10.8334 15.8333 12.7 15.8333 15Z"/>
</mask>
<path fill-rule="evenodd" clip-rule="evenodd" d="M8.33325 15C8.33325 8.55004 13.5499 3.33337 19.9999 3.33337C26.4499 3.33337 31.6666 8.55004 31.6666 15C31.6666 23.75 19.9999 36.6667 19.9999 36.6667C19.9999 36.6667 8.33325 23.75 8.33325 15ZM15.8333 15C15.8333 17.3 17.6999 19.1667 19.9999 19.1667C22.2999 19.1667 24.1666 17.3 24.1666 15C24.1666 12.7 22.2999 10.8334 19.9999 10.8334C17.6999 10.8334 15.8333 12.7 15.8333 15Z" fill="#0078EF"/>
<path d="M19.9999 36.6667L18.5157 38.0073L19.9999 39.6505L21.4841 38.0073L19.9999 36.6667ZM19.9999 1.33337C12.4453 1.33337 6.33325 7.44547 6.33325 15H10.3333C10.3333 9.65461 14.6545 5.33337 19.9999 5.33337V1.33337ZM33.6666 15C33.6666 7.44547 27.5545 1.33337 19.9999 1.33337V5.33337C25.3453 5.33337 29.6666 9.65461 29.6666 15H33.6666ZM19.9999 36.6667C21.4841 38.0073 21.4844 38.007 21.4847 38.0066C21.4849 38.0065 21.4852 38.0061 21.4855 38.0057C21.4862 38.005 21.487 38.0041 21.488 38.003C21.49 38.0007 21.4927 37.9977 21.4961 37.9939C21.503 37.9863 21.5125 37.9757 21.5248 37.9619C21.5493 37.9345 21.5846 37.8948 21.6299 37.8435C21.7205 37.741 21.8513 37.5917 22.0164 37.4C22.3467 37.0167 22.8151 36.4629 23.3758 35.7721C24.4953 34.3927 25.9912 32.4563 27.4912 30.2332C28.9873 28.0158 30.512 25.4768 31.6689 22.8946C32.814 20.3386 33.6666 17.5922 33.6666 15H29.6666C29.6666 16.7829 29.0609 18.9324 28.0185 21.2592C26.9878 23.5598 25.5959 25.8905 24.1753 27.996C22.7586 30.0958 21.3379 31.9355 20.2699 33.2514C19.7368 33.9083 19.2938 34.4319 18.986 34.7892C18.8322 34.9678 18.7123 35.1046 18.632 35.1955C18.5918 35.2409 18.5616 35.2749 18.542 35.2969C18.5322 35.3078 18.525 35.3158 18.5206 35.3207C18.5184 35.3232 18.5169 35.3248 18.5161 35.3257C18.5157 35.3262 18.5154 35.3265 18.5154 35.3265C18.5153 35.3266 18.5154 35.3265 18.5154 35.3265C18.5155 35.3263 18.5157 35.3261 19.9999 36.6667ZM6.33325 15C6.33325 17.5922 7.18587 20.3386 8.33096 22.8946C9.48779 25.4768 11.0126 28.0158 12.5087 30.2332C14.0086 32.4563 15.5046 34.3927 16.6241 35.7721C17.1847 36.4629 17.6532 37.0167 17.9834 37.4C18.1486 37.5917 18.2793 37.741 18.3699 37.8435C18.4152 37.8948 18.4505 37.9345 18.475 37.9619C18.4873 37.9757 18.4969 37.9863 18.5037 37.9939C18.5071 37.9977 18.5098 38.0007 18.5118 38.003C18.5128 38.0041 18.5136 38.005 18.5143 38.0057C18.5146 38.0061 18.515 38.0065 18.5151 38.0066C18.5154 38.007 18.5157 38.0073 19.9999 36.6667C21.4841 35.3261 21.4843 35.3263 21.4844 35.3265C21.4844 35.3265 21.4845 35.3266 21.4845 35.3265C21.4844 35.3265 21.4842 35.3262 21.4838 35.3257C21.483 35.3248 21.4814 35.3232 21.4792 35.3207C21.4748 35.3158 21.4677 35.3078 21.4579 35.2969C21.4383 35.2749 21.408 35.2409 21.3679 35.1955C21.2876 35.1046 21.1677 34.9678 21.0138 34.7892C20.706 34.4319 20.263 33.9083 19.7299 33.2514C18.6619 31.9355 17.2412 30.0958 15.8245 27.996C14.4039 25.8905 13.012 23.5598 11.9814 21.2592C10.939 18.9324 10.3333 16.7829 10.3333 15H6.33325ZM19.9999 17.1667C18.8045 17.1667 17.8333 16.1955 17.8333 15H13.8333C13.8333 18.4046 16.5953 21.1667 19.9999 21.1667V17.1667ZM22.1666 15C22.1666 16.1955 21.1953 17.1667 19.9999 17.1667V21.1667C23.4045 21.1667 26.1666 18.4046 26.1666 15H22.1666ZM19.9999 12.8334C21.1953 12.8334 22.1666 13.8046 22.1666 15H26.1666C26.1666 11.5955 23.4045 8.83337 19.9999 8.83337V12.8334ZM17.8333 15C17.8333 13.8046 18.8045 12.8334 19.9999 12.8334V8.83337C16.5953 8.83337 13.8333 11.5955 13.8333 15H17.8333Z" fill="white" mask="url(#path-1-outside-1_64_552)"/>
</svg>
