<svg width="30" height="31" viewBox="0 0 30 31" fill="none" xmlns="http://www.w3.org/2000/svg">
<path fill-rule="evenodd" clip-rule="evenodd" d="M18.3875 18.0083H19.375L25.6125 24.2583L23.75 26.1208L17.5 19.8833V18.8958L17.1625 18.5458C15.7375 19.7708 13.8875 20.5083 11.875 20.5083C7.3875 20.5083 3.75 16.8708 3.75 12.3833C3.75 7.8958 7.3875 4.2583 11.875 4.2583C16.3625 4.2583 20 7.8958 20 12.3833C20 14.3958 19.2625 16.2458 18.0375 17.6708L18.3875 18.0083ZM6.25 12.3833C6.25 15.4958 8.7625 18.0083 11.875 18.0083C14.9875 18.0083 17.5 15.4958 17.5 12.3833C17.5 9.2708 14.9875 6.7583 11.875 6.7583C8.7625 6.7583 6.25 9.2708 6.25 12.3833Z" fill="#0078EF"/>
</svg>
