<svg width="1411" height="200" viewBox="0 0 1411 200" fill="none" xmlns="http://www.w3.org/2000/svg">
<path d="M705.211 200C703.022 200 700.833 199.921 698.644 199.779C644.377 196.22 602.503 149.181 605.29 94.8983C606.093 79.2134 610.392 64.3946 618.046 50.8357C621.432 44.8514 627.306 40.9617 634.156 40.1428C640.991 39.3239 647.873 41.8436 652.565 46.8672L682.581 78.9929L705.967 49.6073C710.108 44.4105 716.234 41.4656 722.864 41.4656C723.006 41.4656 723.132 41.4656 723.274 41.4656C730.045 41.5916 736.234 44.7885 740.266 50.2372L767.462 87.0874C770.297 90.9299 769.478 96.3629 765.636 99.1975C761.793 102.032 756.36 101.229 753.525 97.3708L726.329 60.5206C725.242 59.0403 723.746 58.7884 722.959 58.7884C722.171 58.7569 720.675 58.9616 719.526 60.3946L695.132 91.0401C692.25 94.6621 687.935 96.8511 683.29 97.0401C678.66 97.2133 674.187 95.3865 671.022 92.0007L639.92 58.7096C638.566 57.2608 636.88 57.2923 636.219 57.3553C635.447 57.4498 634.014 57.8277 633.148 59.371C626.818 70.5678 623.274 82.8197 622.597 95.796C620.282 140.662 654.912 179.559 699.778 182.504C715.321 183.528 730.754 180.158 744.407 172.788C748.612 170.504 753.872 172.079 756.139 176.284C758.407 180.488 756.848 185.748 752.643 188.016C738.061 195.906 721.778 200 705.226 200H705.211Z" fill="#0078EF"/>
<path d="M773.415 159.985C767.478 159.985 761.856 157.559 757.714 153.134L727.714 121.024L704.329 150.41C700.108 155.717 693.841 158.662 687.038 158.551C680.266 158.425 674.077 155.229 670.046 149.78L642.849 112.93C640.014 109.087 640.833 103.654 644.676 100.82C648.518 97.985 653.951 98.7881 656.786 102.646L683.982 139.496C685.069 140.977 686.565 141.229 687.352 141.229C688.14 141.307 689.636 141.056 690.786 139.622L715.179 108.977C718.061 105.355 722.376 103.166 727.021 102.977C731.667 102.772 736.124 104.631 739.289 108.016L770.391 141.307C771.667 142.678 773.21 142.725 774.013 142.63C774.832 142.536 776.344 142.111 777.305 140.41C783.084 130.111 786.533 118.851 787.541 106.993C789.462 84.2685 782.092 62.3002 766.801 45.1192C751.478 27.9225 730.486 18.0643 707.667 17.3556C693.116 16.8989 678.691 20.3162 665.935 27.2138C661.731 29.4815 656.471 27.9225 654.203 23.7178C651.935 19.5131 653.494 14.2533 657.699 11.9856C673.148 3.63918 690.612 -0.502526 708.203 0.048651C735.825 0.899039 761.226 12.8202 779.746 33.5917C798.249 54.3632 807.147 80.9457 804.816 108.442C803.604 122.788 799.43 136.394 792.438 148.882C789.005 154.992 783.053 158.977 776.124 159.811C775.226 159.922 774.344 159.969 773.462 159.969L773.415 159.985Z" fill="#0078EF"/>
<path d="M1020.01 144.595C1015.22 144.595 1011.35 140.721 1011.35 135.933V68.4537C1011.35 63.6663 1015.22 59.7923 1020.01 59.7923C1024.8 59.7923 1028.67 63.6663 1028.67 68.4537V135.933C1028.67 140.721 1024.8 144.595 1020.01 144.595Z" fill="#0078EF"/>
<path d="M1082.59 144.595C1077.81 144.595 1073.93 140.721 1073.93 135.933V68.4537C1073.93 63.6663 1077.81 59.7923 1082.59 59.7923C1087.38 59.7923 1091.25 63.6663 1091.25 68.4537V135.933C1091.25 140.721 1087.38 144.595 1082.59 144.595Z" fill="#0078EF"/>
<path d="M1082.59 110.091H1020.01C1015.22 110.091 1011.35 106.217 1011.35 101.43C1011.35 96.6425 1015.22 92.7686 1020.01 92.7686H1082.59C1087.38 92.7686 1091.26 96.6425 1091.26 101.43C1091.26 106.217 1087.38 110.091 1082.59 110.091Z" fill="#0078EF"/>
<path d="M1126.89 144.595C1122.11 144.595 1118.23 140.721 1118.23 135.933V68.4537C1118.23 63.6663 1122.11 59.7923 1126.89 59.7923C1131.68 59.7923 1135.55 63.6663 1135.55 68.4537V135.933C1135.55 140.721 1131.68 144.595 1126.89 144.595Z" fill="#0078EF"/>
<path d="M1173.99 110.091H1126.89C1122.11 110.091 1118.23 106.217 1118.23 101.43C1118.23 96.6425 1122.11 92.7686 1126.89 92.7686H1173.99C1178.78 92.7686 1182.66 96.6425 1182.66 101.43C1182.66 106.217 1178.78 110.091 1173.99 110.091Z" fill="#0078EF"/>
<path d="M1189.46 77.115H1126.88C1122.09 77.115 1118.22 73.241 1118.22 68.4537C1118.22 63.6663 1122.09 59.7923 1126.88 59.7923H1189.46C1194.25 59.7923 1198.12 63.6663 1198.12 68.4537C1198.12 73.241 1194.25 77.115 1189.46 77.115Z" fill="#0078EF"/>
<path d="M1189.46 144.595H1126.88C1122.09 144.595 1118.22 140.721 1118.22 135.934C1118.22 131.146 1122.09 127.272 1126.88 127.272H1189.46C1194.25 127.272 1198.12 131.146 1198.12 135.934C1198.12 140.721 1194.25 144.595 1189.46 144.595Z" fill="#0078EF"/>
<path d="M1339.06 144.595C1334.28 144.595 1330.4 140.721 1330.4 135.933V68.4537C1330.4 63.6663 1334.28 59.7923 1339.06 59.7923C1343.85 59.7923 1347.73 63.6663 1347.73 68.4537V135.933C1347.73 140.721 1343.85 144.595 1339.06 144.595Z" fill="#0078EF"/>
<path d="M1386.18 110.091H1339.08C1334.29 110.091 1330.42 106.217 1330.42 101.43C1330.42 96.6425 1334.29 92.7686 1339.08 92.7686H1386.18C1390.97 92.7686 1394.84 96.6425 1394.84 101.43C1394.84 106.217 1390.97 110.091 1386.18 110.091Z" fill="#0078EF"/>
<path d="M1401.65 77.115H1339.06C1334.28 77.115 1330.4 73.241 1330.4 68.4537C1330.4 63.6663 1334.28 59.7923 1339.06 59.7923H1401.65C1406.43 59.7923 1410.31 63.6663 1410.31 68.4537C1410.31 73.241 1406.43 77.115 1401.65 77.115Z" fill="#0078EF"/>
<path d="M1401.65 144.595H1339.06C1334.28 144.595 1330.4 140.721 1330.4 135.934C1330.4 131.146 1334.28 127.272 1339.06 127.272H1401.65C1406.43 127.272 1410.31 131.146 1410.31 135.934C1410.31 140.721 1406.43 144.595 1401.65 144.595Z" fill="#0078EF"/>
<path d="M1294.78 145.367C1292.43 145.367 1290.1 144.422 1288.39 142.563L1257.44 108.816C1254.21 105.288 1254.45 99.8078 1257.98 96.5795C1261.51 93.3511 1266.99 93.5874 1270.21 97.1149L1301.16 130.863C1304.39 134.39 1304.15 139.871 1300.62 143.099C1298.95 144.626 1296.86 145.382 1294.78 145.382V145.367Z" fill="#0078EF"/>
<path d="M1232.2 144.595C1227.41 144.595 1223.54 140.721 1223.54 135.933V68.4537C1223.54 63.6663 1227.41 59.7923 1232.2 59.7923C1232.91 59.7923 1233.6 59.871 1234.26 60.0443C1236.18 60.1702 1244.28 60.4222 1277.33 60.0443C1284.25 60.0443 1290.83 62.6112 1295.77 67.493C1300.72 72.3749 1303.44 78.8945 1303.44 85.8393C1303.44 100.06 1291.87 111.634 1277.65 111.634H1240.88V135.949C1240.88 140.737 1237 144.611 1232.21 144.611L1232.2 144.595ZM1240.86 94.296H1277.63C1282.31 94.296 1286.1 90.5007 1286.1 85.8236C1286.1 83.5402 1285.21 81.3984 1283.58 79.7922C1281.96 78.1859 1279.84 77.2725 1277.52 77.3512C1259.36 77.5559 1248.06 77.6977 1240.84 77.6032V94.296H1240.86ZM1238.17 62.186C1239.82 63.7608 1240.86 65.997 1240.86 68.4537C1240.86 65.7135 1239.69 63.619 1238.17 62.186Z" fill="#0078EF"/>
<path d="M892.627 143.666C892.06 143.666 891.477 143.634 890.894 143.587C882.548 142.831 875.918 136.784 874.391 128.564L863.587 68.4695C862.737 63.7608 865.871 59.2569 870.58 58.4065C875.288 57.5562 879.792 60.69 880.642 65.3986L891.446 125.43C891.587 126.154 892.217 126.296 892.485 126.327C893.461 126.422 894.138 125.083 894.438 124.296L912.579 79.43C914.516 74.0127 919.65 70.4065 925.477 70.4065C931.304 70.4065 936.437 74.0127 938.374 79.43L956.469 124.154C956.831 125.099 957.492 126.422 958.484 126.343C958.752 126.312 959.398 126.17 959.54 125.398L970.327 65.4144C971.177 60.7057 975.681 57.5719 980.39 58.4223C985.098 59.2727 988.232 63.7766 987.382 68.4852L976.579 128.516C975.035 136.8 968.406 142.831 960.059 143.603C951.445 144.406 943.713 139.256 940.359 130.516L925.493 93.7606L910.563 130.658C907.493 138.674 900.564 143.682 892.642 143.682L892.627 143.666Z" fill="#0078EF"/>
<path d="M533.836 144.597C529.962 144.597 526.246 142.739 523.726 139.353L484.309 86.3458V135.716C484.309 140.503 480.435 144.377 475.648 144.377C470.86 144.377 466.986 140.503 466.986 135.716V73.968C466.986 67.7633 470.671 62.3775 476.167 60.5665C481.317 58.8657 486.797 60.6767 490.152 65.1806L529.569 118.188V67.8735C529.569 63.0861 533.443 59.2122 538.23 59.2122C543.017 59.2122 546.891 63.0861 546.891 67.8735V130.566C546.891 136.771 543.206 142.156 537.71 143.967C536.419 144.393 535.112 144.597 533.836 144.597Z" fill="#0078EF"/>
<path d="M327.602 143.826C325.255 143.826 322.924 142.881 321.208 141.023L290.263 107.275C287.035 103.747 287.271 98.267 290.799 95.0387C294.326 91.8104 299.807 92.0466 303.035 95.5741L333.979 129.322C337.208 132.849 336.972 138.33 333.444 141.558C331.775 143.086 329.68 143.841 327.602 143.841V143.826Z" fill="#0078EF"/>
<path d="M296.657 110.094H265.019C260.232 110.094 256.358 106.22 256.358 101.432C256.358 96.645 260.232 92.771 265.019 92.771H292.799L321.161 61.1492C324.357 57.5901 329.838 57.2909 333.397 60.4878C336.956 63.6846 337.255 69.1491 334.058 72.7239L303.129 107.228C301.491 109.054 299.145 110.109 296.673 110.109L296.657 110.094Z" fill="#0078EF"/>
<path d="M265.019 143.07C260.232 143.07 256.358 139.196 256.358 134.409V66.9287C256.358 62.1413 260.232 58.2673 265.019 58.2673C269.807 58.2673 273.681 62.1413 273.681 66.9287V134.409C273.681 139.196 269.807 143.07 265.019 143.07Z" fill="#0078EF"/>
<path d="M223.145 144.597C219.712 144.597 216.468 142.55 215.114 139.164L190.39 77.8104C190.075 77.023 189.634 76.5191 189.256 76.5191C188.878 76.5191 188.437 77.023 188.122 77.8104L163.776 138.219C161.996 142.66 156.941 144.802 152.5 143.023C148.059 141.227 145.917 136.188 147.697 131.747L172.043 71.338C175.067 63.8577 181.649 59.1964 189.24 59.1964C196.83 59.1964 203.429 63.842 206.452 71.338L231.177 132.692C232.972 137.133 230.814 142.172 226.374 143.967C225.318 144.393 224.216 144.597 223.145 144.597Z" fill="#0078EF"/>
<path d="M215.287 126.96H162.452C157.665 126.96 153.791 123.086 153.791 118.298C153.791 113.511 157.665 109.637 162.452 109.637H215.287C220.074 109.637 223.948 113.511 223.948 118.298C223.948 123.086 220.074 126.96 215.287 126.96Z" fill="#0078EF"/>
<path d="M115.398 143.716C111.288 143.716 107.635 140.771 106.879 136.582L96.0755 76.5506C95.9338 75.8262 95.3039 75.6845 95.0362 75.653C94.0126 75.59 93.3827 76.8971 93.0834 77.6845L74.9418 122.55C73.0048 127.968 67.871 131.574 62.0443 131.574C56.2175 131.574 51.0837 127.968 49.1467 122.55L31.0524 77.8262C30.6902 76.8813 30.0445 75.59 29.0367 75.6373C28.7689 75.6688 28.1233 75.8105 27.9815 76.5821L17.1942 136.566C16.3438 141.275 11.8399 144.408 7.13129 143.558C2.42266 142.708 -0.711178 138.204 0.139209 133.495L10.9423 73.4641C12.4856 65.1806 19.1155 59.1492 27.4619 58.3775C36.0917 57.6059 43.8082 62.724 47.1625 71.4641L62.0285 108.22L76.9576 71.3223C80.2489 62.724 87.9968 57.6059 96.611 58.3775C104.957 59.1334 111.587 65.1806 113.115 73.4011L123.918 133.495C124.768 138.204 121.634 142.708 116.926 143.558C116.406 143.653 115.886 143.7 115.383 143.7L115.398 143.716Z" fill="#0078EF"/>
<path d="M433.27 144.597C429.837 144.597 426.593 142.55 425.238 139.164L400.514 77.8104C400.199 77.023 399.758 76.5191 399.38 76.5191C399.002 76.5191 398.561 77.023 398.246 77.8104L373.9 138.219C372.105 142.66 367.065 144.802 362.625 143.023C358.184 141.227 356.042 136.188 357.821 131.747L382.168 71.338C385.191 63.842 391.774 59.1964 399.38 59.1964C406.971 59.1964 413.569 63.842 416.577 71.338L441.301 132.692C443.081 137.133 440.939 142.172 436.498 143.967C435.443 144.393 434.341 144.597 433.27 144.597Z" fill="#0078EF"/>
<path d="M425.412 126.96H372.577C367.79 126.96 363.916 123.086 363.916 118.298C363.916 113.511 367.79 109.637 372.577 109.637H425.412C430.199 109.637 434.073 113.511 434.073 118.298C434.073 123.086 430.199 126.96 425.412 126.96Z" fill="#0078EF"/>
</svg>
