<svg width="348" height="128" viewBox="0 0 348 128" fill="none" xmlns="http://www.w3.org/2000/svg">
<path d="M339.32 55.32C336.86 55.32 334.5 54.14 332.9 51.99L307.87 18.33V49.68C307.87 52.72 305.41 55.18 302.37 55.18C299.33 55.18 296.87 52.72 296.87 49.68V10.47C296.87 6.53001 299.21 3.11 302.7 1.96C305.97 0.880005 309.45 2.03001 311.58 4.89001L336.61 38.55V6.60001C336.61 3.56001 339.07 1.10001 342.11 1.10001C345.15 1.10001 347.61 3.56001 347.61 6.60001V46.41C347.61 50.35 345.27 53.77 341.78 54.92C340.96 55.19 340.13 55.32 339.32 55.32Z" fill="#0078EF"/>
<path d="M208.36 54.83C206.87 54.83 205.39 54.23 204.3 53.05L184.65 31.62C182.6 29.38 182.75 25.9 184.99 23.85C187.23 21.8 190.71 21.95 192.76 24.19L212.41 45.62C214.46 47.86 214.31 51.34 212.07 53.39C211.01 54.36 209.68 54.84 208.36 54.84V54.83Z" fill="#0078EF"/>
<path d="M188.71 33.41H168.62C165.58 33.41 163.12 30.95 163.12 27.91C163.12 24.87 165.58 22.41 168.62 22.41H186.26L204.27 2.32999C206.3 0.0699877 209.78 -0.120012 212.04 1.90999C214.3 3.93999 214.49 7.40999 212.46 9.67999L192.82 31.59C191.78 32.75 190.29 33.42 188.72 33.42L188.71 33.41Z" fill="#0078EF"/>
<path d="M168.62 54.35C165.58 54.35 163.12 51.89 163.12 48.85V6C163.12 2.96 165.58 0.5 168.62 0.5C171.66 0.5 174.12 2.96 174.12 6V48.85C174.12 51.89 171.66 54.35 168.62 54.35Z" fill="#0078EF"/>
<path d="M99.77 127.01C96.73 127.01 94.27 124.55 94.27 121.51V78.66C94.27 75.62 96.73 73.16 99.77 73.16C102.81 73.16 105.27 75.62 105.27 78.66V121.51C105.27 124.55 102.81 127.01 99.77 127.01Z" fill="#0078EF"/>
<path d="M139.51 127.01C136.47 127.01 134.01 124.55 134.01 121.51V78.66C134.01 75.62 136.47 73.16 139.51 73.16C142.55 73.16 145.01 75.62 145.01 78.66V121.51C145.01 124.55 142.55 127.01 139.51 127.01Z" fill="#0078EF"/>
<path d="M139.51 105.1H99.77C96.73 105.1 94.27 102.64 94.27 99.6C94.27 96.56 96.73 94.1 99.77 94.1H139.51C142.55 94.1 145.01 96.56 145.01 99.6C145.01 102.64 142.55 105.1 139.51 105.1Z" fill="#0078EF"/>
<path d="M167.64 127.01C164.6 127.01 162.14 124.55 162.14 121.51V78.66C162.14 75.62 164.6 73.16 167.64 73.16C170.68 73.16 173.14 75.62 173.14 78.66V121.51C173.14 124.55 170.68 127.01 167.64 127.01Z" fill="#0078EF"/>
<path d="M197.55 105.1H167.64C164.6 105.1 162.14 102.64 162.14 99.6C162.14 96.56 164.6 94.1 167.64 94.1H197.55C200.59 94.1 203.05 96.56 203.05 99.6C203.05 102.64 200.59 105.1 197.55 105.1Z" fill="#0078EF"/>
<path d="M207.37 84.16H167.63C164.59 84.16 162.13 81.7 162.13 78.66C162.13 75.62 164.59 73.16 167.63 73.16H207.37C210.41 73.16 212.87 75.62 212.87 78.66C212.87 81.7 210.41 84.16 207.37 84.16Z" fill="#0078EF"/>
<path d="M207.37 127.01H167.63C164.59 127.01 162.13 124.55 162.13 121.51C162.13 118.47 164.59 116.01 167.63 116.01H207.37C210.41 116.01 212.87 118.47 212.87 121.51C212.87 124.55 210.41 127.01 207.37 127.01Z" fill="#0078EF"/>
<path d="M302.37 127.01C299.33 127.01 296.87 124.55 296.87 121.51V78.66C296.87 75.62 299.33 73.16 302.37 73.16C305.41 73.16 307.87 75.62 307.87 78.66V121.51C307.87 124.55 305.41 127.01 302.37 127.01Z" fill="#0078EF"/>
<path d="M332.29 105.1H302.38C299.34 105.1 296.88 102.64 296.88 99.6C296.88 96.56 299.34 94.1 302.38 94.1H332.29C335.33 94.1 337.79 96.56 337.79 99.6C337.79 102.64 335.33 105.1 332.29 105.1Z" fill="#0078EF"/>
<path d="M342.11 84.16H302.37C299.33 84.16 296.87 81.7 296.87 78.66C296.87 75.62 299.33 73.16 302.37 73.16H342.11C345.15 73.16 347.61 75.62 347.61 78.66C347.61 81.7 345.15 84.16 342.11 84.16Z" fill="#0078EF"/>
<path d="M342.11 127.01H302.37C299.33 127.01 296.87 124.55 296.87 121.51C296.87 118.47 299.33 116.01 302.37 116.01H342.11C345.15 116.01 347.61 118.47 347.61 121.51C347.61 124.55 345.15 127.01 342.11 127.01Z" fill="#0078EF"/>
<path d="M274.25 127.5C272.76 127.5 271.28 126.9 270.19 125.72L250.54 104.29C248.49 102.05 248.64 98.57 250.88 96.52C253.12 94.47 256.6 94.62 258.65 96.86L278.3 118.29C280.35 120.53 280.2 124.01 277.96 126.06C276.9 127.03 275.57 127.51 274.25 127.51V127.5Z" fill="#0078EF"/>
<path d="M234.51 127.01C231.47 127.01 229.01 124.55 229.01 121.51V78.66C229.01 75.62 231.47 73.16 234.51 73.16C234.96 73.16 235.4 73.21 235.82 73.32C237.04 73.4 242.18 73.56 263.17 73.32C267.56 73.32 271.74 74.95 274.88 78.05C278.02 81.15 279.75 85.29 279.75 89.7C279.75 98.73 272.4 106.08 263.37 106.08H240.02V121.52C240.02 124.56 237.56 127.02 234.52 127.02L234.51 127.01ZM240.01 95.07H263.36C266.33 95.07 268.74 92.66 268.74 89.69C268.74 88.24 268.17 86.88 267.14 85.86C266.11 84.84 264.76 84.26 263.29 84.31C251.76 84.44 244.58 84.53 240 84.47V95.07H240.01ZM238.3 74.68C239.35 75.68 240.01 77.1 240.01 78.66C240.01 76.92 239.27 75.59 238.3 74.68Z" fill="#0078EF"/>
<path d="M142.03 55.32C139.85 55.32 137.79 54.02 136.93 51.87L121.23 12.91C121.03 12.41 120.75 12.09 120.51 12.09C120.27 12.09 119.99 12.41 119.79 12.91L104.33 51.27C103.2 54.09 99.9898 55.45 97.1698 54.32C94.3498 53.18 92.9897 49.98 94.1197 47.16L109.58 8.8C111.5 4.05 115.68 1.09 120.5 1.09C125.32 1.09 129.51 4.04 131.43 8.8L147.13 47.76C148.27 50.58 146.9 53.78 144.08 54.92C143.41 55.19 142.71 55.32 142.03 55.32Z" fill="#0078EF"/>
<path d="M137.04 44.12H103.49C100.45 44.12 97.9897 41.66 97.9897 38.62C97.9897 35.58 100.45 33.12 103.49 33.12H137.04C140.08 33.12 142.54 35.58 142.54 38.62C142.54 41.66 140.08 44.12 137.04 44.12Z" fill="#0078EF"/>
<path d="M73.6099 54.76C70.9999 54.76 68.6799 52.89 68.1999 50.23L61.3399 12.11C61.2499 11.65 60.8499 11.56 60.6799 11.54C60.0299 11.5 59.6299 12.33 59.4399 12.83L47.9199 41.32C46.6899 44.76 43.4299 47.05 39.7299 47.05C36.0299 47.05 32.7699 44.76 31.5399 41.32L20.0499 12.92C19.8199 12.32 19.4099 11.5 18.7699 11.53C18.5999 11.55 18.1899 11.64 18.0999 12.13L11.2499 50.22C10.7099 53.21 7.84994 55.2 4.85994 54.66C1.86994 54.12 -0.120059 51.26 0.419941 48.27L7.27994 10.15C8.25994 4.89001 12.4699 1.06001 17.7699 0.570011C23.2499 0.0800107 28.1499 3.33001 30.2799 8.88001L39.7199 32.22L49.1999 8.79001C51.2899 3.33001 56.2099 0.0800107 61.6799 0.570011C66.9799 1.05001 71.19 4.89001 72.16 10.11L79.0199 48.27C79.5599 51.26 77.5699 54.12 74.5799 54.66C74.2499 54.72 73.92 54.75 73.6 54.75L73.6099 54.76Z" fill="#0078EF"/>
<path d="M18.88 126.42C18.52 126.42 18.15 126.4 17.78 126.37C12.48 125.89 8.26996 122.05 7.29996 116.83L0.439961 78.67C-0.100039 75.68 1.88996 72.82 4.87996 72.28C7.86996 71.74 10.73 73.73 11.27 76.72L18.13 114.84C18.22 115.3 18.62 115.39 18.79 115.41C19.41 115.47 19.84 114.62 20.03 114.12L31.55 85.63C32.78 82.19 36.04 79.9 39.74 79.9C43.44 79.9 46.7 82.19 47.93 85.63L59.42 114.03C59.65 114.63 60.07 115.47 60.7 115.42C60.87 115.4 61.28 115.31 61.37 114.82L68.22 76.73C68.76 73.74 71.6199 71.75 74.6099 72.29C77.5999 72.83 79.5899 75.69 79.0499 78.68L72.19 116.8C71.21 122.06 67 125.89 61.7 126.38C56.23 126.89 51.32 123.62 49.19 118.07L39.75 94.73L30.27 118.16C28.32 123.25 23.92 126.43 18.89 126.43L18.88 126.42Z" fill="#0078EF"/>
<path d="M275.46 55.32C273.28 55.32 271.22 54.02 270.36 51.87L254.66 12.91C254.46 12.41 254.18 12.09 253.94 12.09C253.7 12.09 253.42 12.41 253.22 12.91L237.76 51.27C236.62 54.09 233.42 55.45 230.6 54.32C227.78 53.18 226.42 49.98 227.55 47.16L243.01 8.8C244.93 4.04 249.11 1.09 253.94 1.09C258.76 1.09 262.95 4.04 264.86 8.8L280.56 47.76C281.69 50.58 280.33 53.78 277.51 54.92C276.84 55.19 276.14 55.32 275.46 55.32Z" fill="#0078EF"/>
<path d="M270.47 44.12H236.92C233.88 44.12 231.42 41.66 231.42 38.62C231.42 35.58 233.88 33.12 236.92 33.12H270.47C273.51 33.12 275.97 35.58 275.97 38.62C275.97 41.66 273.51 44.12 270.47 44.12Z" fill="#0078EF"/>
</svg>
