<svg width="128" height="128" viewBox="0 0 128 128" fill="none" xmlns="http://www.w3.org/2000/svg">
<path d="M63.5335 127.5C62.1435 127.5 60.7535 127.45 59.3635 127.36C24.9035 125.1 -1.68651 95.23 0.0834851 60.76C0.593485 50.8 3.32349 41.39 8.18349 32.78C10.3335 28.98 14.0635 26.51 18.4135 25.99C22.7535 25.47 27.1235 27.07 30.1035 30.26L49.1635 50.66L64.0135 32C66.6435 28.7 70.5335 26.83 74.7435 26.83C74.8335 26.83 74.9135 26.83 75.0035 26.83C79.3035 26.91 83.2335 28.94 85.7935 32.4L103.063 55.8C104.863 58.24 104.343 61.69 101.903 63.49C99.4635 65.29 96.0135 64.78 94.2135 62.33L76.9435 38.93C76.2535 37.99 75.3035 37.83 74.8035 37.83C74.3035 37.81 73.3535 37.94 72.6235 38.85L57.1335 58.31C55.3035 60.61 52.5635 62 49.6135 62.12C46.6735 62.23 43.8335 61.07 41.8235 58.92L22.0735 37.78C21.2135 36.86 20.1435 36.88 19.7235 36.92C19.2335 36.98 18.3235 37.22 17.7735 38.2C13.7535 45.31 11.5035 53.09 11.0735 61.33C9.60349 89.82 31.5935 114.52 60.0835 116.39C69.9535 117.04 79.7535 114.9 88.4235 110.22C91.0935 108.77 94.4335 109.77 95.8735 112.44C97.3135 115.11 96.3235 118.45 93.6535 119.89C84.3935 124.9 74.0535 127.5 63.5435 127.5H63.5335Z" fill="currentColor"/>
<path d="M106.843 102.09C103.073 102.09 99.5034 100.55 96.8734 97.74L77.8234 77.35L62.9734 96.01C60.2934 99.38 56.3134 101.25 51.9934 101.18C47.6934 101.1 43.7634 99.07 41.2034 95.61L23.9334 72.21C22.1334 69.77 22.6534 66.32 25.0934 64.52C27.5334 62.72 30.9834 63.23 32.7834 65.68L50.0533 89.08C50.7433 90.02 51.6933 90.18 52.1933 90.18C52.6933 90.23 53.6433 90.07 54.3733 89.16L69.8634 69.7C71.6934 67.4 74.4334 66.01 77.3834 65.89C80.3334 65.76 83.1634 66.94 85.1734 69.09L104.923 90.23C105.733 91.1 106.713 91.13 107.223 91.07C107.743 91.01 108.703 90.74 109.313 89.66C112.983 83.12 115.173 75.97 115.813 68.44C117.033 54.01 112.353 40.06 102.643 29.15C92.9134 18.23 79.5833 11.97 65.0933 11.52C55.8533 11.23 46.6934 13.4 38.5934 17.78C35.9234 19.22 32.5834 18.23 31.1434 15.56C29.7034 12.89 30.6934 9.55001 33.3634 8.11001C43.1734 2.81001 54.2634 0.180009 65.4334 0.530009C82.9734 1.07001 99.1033 8.64001 110.863 21.83C122.613 35.02 128.263 51.9 126.783 69.36C126.013 78.47 123.363 87.11 118.923 95.04C116.743 98.92 112.963 101.45 108.563 101.98C107.993 102.05 107.433 102.08 106.873 102.08L106.843 102.09Z" fill="currentColor"/>
</svg>
