<svg width="746" height="56" viewBox="0 0 746 56" fill="none" xmlns="http://www.w3.org/2000/svg">
<path d="M497.418 54.8184C494.378 54.8184 491.918 52.3584 491.918 49.3184V6.46841C491.918 3.42841 494.378 0.968414 497.418 0.968414C500.458 0.968414 502.918 3.42841 502.918 6.46841V49.3184C502.918 52.3584 500.458 54.8184 497.418 54.8184Z" fill="#0078EF"/>
<path d="M537.158 54.8184C534.118 54.8184 531.658 52.3584 531.658 49.3184V6.46841C531.658 3.42841 534.118 0.968414 537.158 0.968414C540.198 0.968414 542.658 3.42841 542.658 6.46841V49.3184C542.658 52.3584 540.198 54.8184 537.158 54.8184Z" fill="#0078EF"/>
<path d="M537.158 32.9084H497.418C494.378 32.9084 491.918 30.4484 491.918 27.4084C491.918 24.3684 494.378 21.9084 497.418 21.9084H537.158C540.198 21.9084 542.658 24.3684 542.658 27.4084C542.658 30.4484 540.198 32.9084 537.158 32.9084Z" fill="#0078EF"/>
<path d="M565.289 54.8184C562.249 54.8184 559.789 52.3584 559.789 49.3184V6.46841C559.789 3.42841 562.249 0.968414 565.289 0.968414C568.329 0.968414 570.789 3.42841 570.789 6.46841V49.3184C570.789 52.3584 568.329 54.8184 565.289 54.8184Z" fill="#0078EF"/>
<path d="M595.199 32.9084H565.289C562.249 32.9084 559.789 30.4484 559.789 27.4084C559.789 24.3684 562.249 21.9084 565.289 21.9084H595.199C598.239 21.9084 600.699 24.3684 600.699 27.4084C600.699 30.4484 598.239 32.9084 595.199 32.9084Z" fill="#0078EF"/>
<path d="M605.018 11.9684H565.278C562.238 11.9684 559.778 9.50841 559.778 6.46841C559.778 3.42841 562.238 0.968414 565.278 0.968414H605.018C608.058 0.968414 610.518 3.42841 610.518 6.46841C610.518 9.50841 608.058 11.9684 605.018 11.9684Z" fill="#0078EF"/>
<path d="M605.018 54.8184H565.278C562.238 54.8184 559.778 52.3584 559.778 49.3184C559.778 46.2784 562.238 43.8184 565.278 43.8184H605.018C608.058 43.8184 610.518 46.2784 610.518 49.3184C610.518 52.3584 608.058 54.8184 605.018 54.8184Z" fill="#0078EF"/>
<path d="M700.019 54.8184C696.979 54.8184 694.519 52.3584 694.519 49.3184V6.46841C694.519 3.42841 696.979 0.968414 700.019 0.968414C703.059 0.968414 705.519 3.42841 705.519 6.46841V49.3184C705.519 52.3584 703.059 54.8184 700.019 54.8184Z" fill="#0078EF"/>
<path d="M729.938 32.9084H700.028C696.988 32.9084 694.528 30.4484 694.528 27.4084C694.528 24.3684 696.988 21.9084 700.028 21.9084H729.938C732.978 21.9084 735.438 24.3684 735.438 27.4084C735.438 30.4484 732.978 32.9084 729.938 32.9084Z" fill="#0078EF"/>
<path d="M739.759 11.9684H700.019C696.979 11.9684 694.519 9.50841 694.519 6.46841C694.519 3.42841 696.979 0.968414 700.019 0.968414H739.759C742.799 0.968414 745.259 3.42841 745.259 6.46841C745.259 9.50841 742.799 11.9684 739.759 11.9684Z" fill="#0078EF"/>
<path d="M739.759 54.8184H700.019C696.979 54.8184 694.519 52.3584 694.519 49.3184C694.519 46.2784 696.979 43.8184 700.019 43.8184H739.759C742.799 43.8184 745.259 46.2784 745.259 49.3184C745.259 52.3584 742.799 54.8184 739.759 54.8184Z" fill="#0078EF"/>
<path d="M671.898 55.3084C670.408 55.3084 668.928 54.7084 667.838 53.5284L648.188 32.0984C646.138 29.8584 646.288 26.3784 648.528 24.3284C650.768 22.2784 654.248 22.4284 656.298 24.6684L675.948 46.0984C677.998 48.3384 677.848 51.8184 675.608 53.8684C674.548 54.8384 673.218 55.3184 671.898 55.3184V55.3084Z" fill="#0078EF"/>
<path d="M632.158 54.8184C629.118 54.8184 626.658 52.3584 626.658 49.3184V6.46841C626.658 3.42841 629.118 0.968414 632.158 0.968414C632.608 0.968414 633.048 1.01841 633.468 1.12841C634.688 1.20841 639.828 1.36841 660.818 1.12841C665.208 1.12841 669.388 2.75841 672.528 5.85841C675.668 8.95841 677.398 13.0984 677.398 17.5084C677.398 26.5384 670.048 33.8884 661.018 33.8884H637.668V49.3284C637.668 52.3684 635.208 54.8284 632.168 54.8284L632.158 54.8184ZM637.658 22.8784H661.008C663.978 22.8784 666.388 20.4684 666.388 17.4984C666.388 16.0484 665.818 14.6884 664.788 13.6684C663.758 12.6484 662.408 12.0684 660.938 12.1184C649.408 12.2484 642.228 12.3384 637.648 12.2784V22.8784H637.658ZM635.948 2.48841C636.998 3.48841 637.658 4.90841 637.658 6.46841C637.658 4.72841 636.918 3.39841 635.948 2.48841Z" fill="#0078EF"/>
<path d="M416.528 54.2284C416.168 54.2284 415.798 54.2084 415.428 54.1784C410.128 53.6984 405.918 49.8584 404.948 44.6384L398.088 6.4784C397.548 3.4884 399.538 0.628399 402.528 0.0883985C405.518 -0.451602 408.378 1.5384 408.918 4.5284L415.778 42.6484C415.868 43.1084 416.268 43.1984 416.438 43.2184C417.058 43.2784 417.488 42.4284 417.678 41.9284L429.198 13.4384C430.428 9.9984 433.688 7.7084 437.388 7.7084C441.088 7.7084 444.348 9.9984 445.578 13.4384L457.068 41.8384C457.298 42.4384 457.718 43.2784 458.348 43.2284C458.518 43.2084 458.928 43.1184 459.018 42.6284L465.868 4.5384C466.408 1.5484 469.268 -0.441599 472.258 0.0984007C475.248 0.638401 477.238 3.4984 476.698 6.4884L469.838 44.6084C468.858 49.8684 464.648 53.6984 459.348 54.1884C453.878 54.6984 448.968 51.4284 446.838 45.8784L437.398 22.5384L427.918 45.9684C425.968 51.0584 421.568 54.2384 416.538 54.2384L416.528 54.2284Z" fill="#0078EF"/>
<path d="M338.989 54.82C336.529 54.82 334.169 53.64 332.569 51.49L307.539 17.83V49.18C307.539 52.22 305.079 54.68 302.039 54.68C298.999 54.68 296.539 52.22 296.539 49.18V9.97001C296.539 6.03001 298.879 2.61 302.369 1.46C305.639 0.380005 309.119 1.53001 311.249 4.39001L336.279 38.05V6.10001C336.279 3.06001 338.739 0.600006 341.779 0.600006C344.819 0.600006 347.279 3.06001 347.279 6.10001V45.91C347.279 49.85 344.939 53.27 341.449 54.42C340.629 54.69 339.799 54.82 338.989 54.82Z" fill="#0078EF"/>
<path d="M208.028 54.33C206.538 54.33 205.059 53.73 203.969 52.55L184.319 31.12C182.269 28.88 182.419 25.4 184.659 23.35C186.899 21.3 190.379 21.45 192.429 23.69L212.079 45.12C214.129 47.36 213.979 50.84 211.739 52.89C210.679 53.86 209.348 54.34 208.028 54.34V54.33Z" fill="#0078EF"/>
<path d="M188.379 32.91H168.289C165.249 32.91 162.789 30.45 162.789 27.41C162.789 24.37 165.249 21.91 168.289 21.91H185.929L203.939 1.82999C205.969 -0.430012 209.449 -0.620012 211.709 1.40999C213.969 3.43999 214.159 6.90999 212.129 9.17999L192.489 31.09C191.449 32.25 189.959 32.92 188.389 32.92L188.379 32.91Z" fill="#0078EF"/>
<path d="M168.289 53.85C165.249 53.85 162.789 51.39 162.789 48.35V5.5C162.789 2.46 165.249 0 168.289 0C171.329 0 173.789 2.46 173.789 5.5V48.35C173.789 51.39 171.329 53.85 168.289 53.85Z" fill="#0078EF"/>
<path d="M141.698 54.82C139.518 54.82 137.458 53.52 136.598 51.37L120.898 12.41C120.698 11.91 120.418 11.59 120.178 11.59C119.938 11.59 119.658 11.91 119.458 12.41L103.998 50.77C102.868 53.59 99.6582 54.95 96.8382 53.82C94.0182 52.68 92.6582 49.48 93.7882 46.66L109.248 8.3C111.168 3.55 115.348 0.589996 120.168 0.589996C124.988 0.589996 129.178 3.54 131.098 8.3L146.798 47.26C147.938 50.08 146.568 53.28 143.748 54.42C143.078 54.69 142.378 54.82 141.698 54.82Z" fill="#0078EF"/>
<path d="M136.708 43.62H103.158C100.118 43.62 97.6582 41.16 97.6582 38.12C97.6582 35.08 100.118 32.62 103.158 32.62H136.708C139.748 32.62 142.208 35.08 142.208 38.12C142.208 41.16 139.748 43.62 136.708 43.62Z" fill="#0078EF"/>
<path d="M73.2784 54.26C70.6684 54.26 68.3484 52.39 67.8684 49.73L61.0084 11.61C60.9184 11.15 60.5184 11.06 60.3484 11.04C59.6984 11 59.2984 11.83 59.1084 12.33L47.5884 40.82C46.3584 44.26 43.0984 46.55 39.3984 46.55C35.6984 46.55 32.4384 44.26 31.2084 40.82L19.7184 12.42C19.4884 11.82 19.0784 11 18.4384 11.03C18.2684 11.05 17.8584 11.14 17.7684 11.63L10.9184 49.72C10.3784 52.71 7.5184 54.7 4.5284 54.16C1.5384 53.62 -0.451602 50.76 0.0883985 47.77L6.9484 9.65001C7.9284 4.39001 12.1384 0.560011 17.4384 0.0700107C22.9184 -0.419989 27.8184 2.83001 29.9484 8.38001L39.3884 31.72L48.8684 8.29001C50.9584 2.83001 55.8784 -0.419989 61.3484 0.0700107C66.6484 0.550011 70.8584 4.39001 71.8284 9.61001L78.6884 47.77C79.2284 50.76 77.2384 53.62 74.2484 54.16C73.9184 54.22 73.5884 54.25 73.2684 54.25L73.2784 54.26Z" fill="#0078EF"/>
<path d="M275.128 54.82C272.948 54.82 270.888 53.52 270.028 51.37L254.328 12.41C254.128 11.91 253.848 11.59 253.608 11.59C253.368 11.59 253.088 11.91 252.888 12.41L237.428 50.77C236.288 53.59 233.088 54.95 230.268 53.82C227.448 52.68 226.088 49.48 227.218 46.66L242.678 8.3C244.598 3.54 248.778 0.589996 253.608 0.589996C258.428 0.589996 262.618 3.54 264.528 8.3L280.228 47.26C281.358 50.08 279.998 53.28 277.178 54.42C276.508 54.69 275.808 54.82 275.128 54.82Z" fill="#0078EF"/>
<path d="M270.138 43.62H236.588C233.548 43.62 231.088 41.16 231.088 38.12C231.088 35.08 233.548 32.62 236.588 32.62H270.138C273.178 32.62 275.638 35.08 275.638 38.12C275.638 41.16 273.178 43.62 270.138 43.62Z" fill="#0078EF"/>
</svg>
